<svg width="460" height="330" viewBox="490 270 450 330" fill="none" xmlns="http://www.w3.org/2000/svg">
  <path d="M719.257 486.248L706.612 508.521C725.688 512.306 773.945 528.525 781.24 547.609C782.915 551.934 783.509 563.233 777.511 563.287C771.026 563.395 748.006 555.664 739.306 553.88C730.227 552.042 721.094 550.312 711.908 548.96C704.829 561.611 674.243 581.127 662.624 566.639C654.681 556.745 672.567 551.555 679.809 549.393L706.558 543.5C700.56 536.418 687.428 521.496 671.541 508.251C660.084 498.628 651.438 493.492 648.52 491.816C644.521 489.491 641.117 487.761 638.631 486.572C638.631 486.572 637.226 485.653 626.797 479.328C618.204 474.084 612.692 472.408 604.857 467.921C599.885 465.055 593.13 460.622 585.781 453.648C581.296 449.323 574.919 442.619 568.867 433.212C566.381 429.374 566.165 428.563 559.734 416.832C548.764 396.774 545.846 392.72 542.442 388.881C533.417 378.609 527.635 377.096 525.69 376.663C521.15 375.69 519.799 377.042 516.179 375.528C509.316 372.608 505.371 364.175 505.155 356.768C505.155 355.2 504.831 345.631 509.694 342.874C515.855 339.36 528.824 347.632 542.063 363.58C539.037 356.011 536.768 346.334 540.929 338.279C548.062 324.331 589.239 361.255 649.709 382.556C695.966 398.883 773.188 413.966 795.614 383.529C806.854 368.337 797.938 350.497 813.717 335.089C826.47 322.601 845.762 321.195 861.163 322.33L858.948 319.357L818.851 322.384C791.669 322.979 712.502 322.547 690.616 310.707C676.566 303.138 683.051 290.812 695.804 287.028C721.581 279.459 805.99 301.138 835.873 308.112C848.626 311.085 856.3 313.248 869.107 314.87C885.697 316.978 914.824 349.524 920.282 364.986C924.767 377.852 927.037 387.313 914.554 395.801C903.8 403.1 888.345 403.586 876.024 401.099C876.024 407.911 874.943 418.886 868.567 429.861C861.001 442.998 849.707 449.377 837.873 456.135C822.688 464.785 819.77 462.622 800.207 472.84C785.995 480.247 778.916 483.977 772.918 489.546C772.918 489.546 748.924 511.927 742.926 513.117C742.116 513.279 740.494 513.495 740.711 512.36C759.354 493.762 783.563 474.841 808.692 465.866C825.768 459.757 843.547 451.756 858.137 439.862C868.945 431.05 873.16 413.696 871.431 399.694C853.49 402.451 810.421 369.689 835.333 353.795C861.38 337.143 874.349 376.177 874.727 395.693L876.889 397.964C888.831 399.099 910.771 398.991 918.228 387.692C922.389 381.421 918.228 369.257 915.31 362.445C911.42 353.416 885.211 324.439 876.51 320.925C872.674 319.357 869.647 318.816 865.486 319.303C865.649 320.276 865.595 321.087 865.324 321.844C863.433 327.142 851.544 324.331 836.63 328.331C830.685 329.953 822.796 332.116 816.581 338.873C813.501 342.279 812.042 345.415 810.259 349.416C803.288 365.094 807.07 371.365 801.504 382.502C796.641 392.233 788.697 397.423 785.941 399.153C783.509 400.667 777.187 406.235 756.166 406.181C723.472 406.073 707.098 406.019 683.267 400.126C683.267 400.126 652.303 392.449 604.911 368.77C593.995 363.31 582.971 358.066 572.487 351.903C555.735 342.063 550.602 337.197 547.035 339.468C539.578 344.226 550.115 374.338 554.276 381.096C560.275 390.936 560.329 391.044 560.329 391.044C561.031 392.125 562.274 394.071 563.787 396.828C564.814 398.721 565.624 400.342 566.165 401.478C564.436 401.91 562.706 402.397 560.977 402.829C556.924 397.585 552.763 391.638 548.602 384.935C544.441 378.285 540.983 371.852 538.065 365.959C534.66 360.877 531.31 357.038 528.716 354.389C523.258 348.821 520.232 347.469 518.286 346.767C515.963 345.956 512.45 344.766 510.072 346.226C506.506 348.388 506.019 356.065 509.532 364.986C512.612 368.878 516.233 372.446 519.097 371.635C520.88 371.095 521.096 369.257 522.555 368.5C528.175 365.526 542.118 383.097 542.118 383.097C563.085 413.426 571.569 427.32 574.433 433.483C574.433 433.591 574.487 433.645 574.541 433.699C578.972 442.998 585.187 448.728 589.726 452.783C593.4 456.081 599.183 461.217 608.207 465.163C608.91 465.488 608.423 465.217 611.125 466.353C626.851 472.786 632.417 476.084 635.875 478.355C636.578 478.787 637.118 479.166 637.875 479.706C649.925 487.924 699.749 522.416 708.017 540.472C708.395 541.229 708.936 544.797 711.962 545.716C715.745 546.906 723.85 546.798 728.768 547.879C744.818 551.447 760.813 555.394 776.863 559.178C783.672 550.96 771.351 540.256 764.92 535.553C747.303 522.632 721.203 516.415 700.506 509.981L713.853 486.194C690.346 482.463 649.817 476.246 634.47 456.297C609.018 423.265 673.648 423.806 691.913 427.049C724.283 432.834 730.389 453.864 719.798 483.166H741.359C742.278 483.166 750.6 472.029 753.302 469.813C757.787 466.082 772.377 458.081 776.701 462.46C778.592 464.406 777.727 468.029 777.565 468.677C775.566 476.625 764.758 477.76 753.68 483.923C735.901 493.871 729.092 510.251 727.957 509.441C727.363 509.008 729.2 504.629 740.602 486.086H719.041L719.257 486.248ZM850.842 314.816C821.553 309.626 792.696 301.246 763.461 295.894C745.196 292.542 715.042 286.271 697.317 289.839C686.888 291.947 682.24 302.652 693.264 308.112C717.096 319.898 810.529 319.681 839.764 317.843C842.358 317.681 849.491 317.303 850.842 314.816ZM871.647 396.612C869.539 381.475 864.892 350.064 843.331 354.119C828.362 356.93 829.983 370.716 838.143 380.285C845.816 389.26 860.407 394.342 871.647 396.612ZM574.271 406.235L571.299 406.992C569.029 410.668 574.541 438.565 580.215 434.51C584.43 424.346 578.216 415.264 574.271 406.289V406.235ZM716.879 481.598C722.283 464.623 726.444 446.89 708.179 436.348C685.753 423.427 600.75 426.076 645.008 460.892C662.895 474.949 694.669 480.95 716.933 481.598H716.879ZM748.276 481.761C758.381 480.247 770.108 477.706 774.971 467.65C765.136 460.244 754.22 474.895 748.276 481.761ZM706.612 548.744C699.587 548.852 663.057 554.312 663.759 562.908C676.566 576.154 698.722 561.07 706.612 548.744Z" fill="black"/>
</svg>
